<?xml version="1.0" standalone="no"?>
<!DOCTYPE svg PUBLIC "-//W3C//DTD SVG 20010904//EN"
 "http://www.w3.org/TR/2001/REC-SVG-20010904/DTD/svg10.dtd">
<svg version="1.0" xmlns="http://www.w3.org/2000/svg"
 width="700.000000pt" height="700.000000pt" viewBox="0 0 700.000000 700.000000"
 preserveAspectRatio="xMidYMid meet">
<metadata>
Created by potrace 1.14, written by Peter Selinger 2001-2017
</metadata>
<g transform="translate(0.000000,700.000000) scale(0.100000,-0.100000)"
fill="#000000" stroke="none">
<path d="M4137 5304 c-1 -1 -29 -4 -62 -8 -87 -9 -110 -14 -188 -41 -96 -34
-148 -67 -216 -135 -117 -117 -183 -310 -206 -600 -11 -132 5 -120 -150 -120
-101 0 -135 -3 -136 -12 0 -7 -2 -20 -3 -28 -2 -8 -6 -52 -10 -97 l-6 -83 140
0 141 0 -5 -42 c-3 -24 -8 -79 -11 -123 -3 -44 -7 -105 -10 -135 -6 -75 -16
-198 -20 -240 -2 -19 -6 -75 -10 -125 -3 -49 -8 -112 -10 -140 -6 -72 -14
-175 -20 -252 -3 -38 -8 -94 -10 -125 -3 -32 -7 -84 -10 -115 -2 -32 -7 -89
-11 -128 -3 -38 -8 -86 -9 -105 -4 -54 -16 -153 -20 -170 -2 -8 -7 -40 -10
-70 -10 -82 -42 -198 -74 -265 -45 -97 -111 -150 -241 -193 -75 -26 -239 -23
-327 6 -43 14 -63 16 -64 8 -1 -6 -3 -20 -4 -31 -2 -11 -5 -59 -8 -106 l-5
-85 46 -13 c115 -31 295 -45 382 -28 175 34 325 132 420 275 35 53 84 169 105
248 16 63 19 75 40 204 7 42 24 190 31 270 3 41 8 93 9 115 2 22 7 76 10 120
3 44 8 100 10 125 2 25 7 81 10 125 3 44 8 100 10 125 2 25 7 86 10 135 4 50
8 106 10 125 2 19 6 77 10 129 4 51 9 108 10 125 2 17 6 76 10 131 4 55 9 111
10 125 2 14 4 42 4 63 l1 37 235 0 235 0 1 38 c0 20 2 46 4 56 2 10 5 42 6 70
l3 51 -233 3 -233 2 6 73 c4 39 9 86 11 102 3 17 7 48 11 70 3 22 7 45 8 50 1
6 6 26 10 45 27 122 125 248 229 296 112 51 315 64 461 30 38 -9 70 -15 71
-14 2 2 6 49 9 105 8 118 11 114 -93 133 -53 9 -296 21 -304 14z"/>
<path d="M4743 5300 c-90 -20 -157 -107 -152 -199 11 -208 276 -262 371 -76
73 141 -61 309 -219 275z"/>
<path d="M5299 5252 c-2 -41 -6 -82 -13 -139 l-6 -53 161 0 160 0 -6 -82 c-3
-46 -8 -99 -10 -118 -2 -19 -7 -66 -10 -105 -3 -38 -8 -90 -10 -115 -2 -25 -7
-76 -10 -115 -6 -74 -12 -138 -19 -220 -6 -64 -16 -171 -21 -244 -7 -85 -15
-171 -20 -221 -2 -25 -7 -76 -10 -115 -13 -158 -15 -182 -20 -225 -3 -25 -7
-76 -11 -115 -3 -38 -7 -90 -10 -115 -2 -25 -6 -74 -9 -110 -6 -78 -14 -167
-20 -235 -14 -138 -25 -272 -25 -292 l0 -23 265 0 c205 0 265 3 266 13 0 6 2
20 4 31 2 10 6 53 9 95 l6 77 -128 1 -127 0 1 44 c0 42 12 195 19 252 2 15 6
67 10 115 3 48 8 105 11 127 2 22 6 65 9 95 5 72 15 186 20 230 3 19 7 71 10
115 3 44 7 96 10 115 2 19 6 69 10 110 10 128 22 271 30 350 2 25 7 79 10 120
4 41 8 86 10 100 2 14 7 68 10 120 3 52 8 106 10 120 2 14 7 68 10 120 4 52 8
97 10 100 2 3 6 53 10 112 l7 106 -296 0 -296 0 -1 -26z"/>
<path d="M6269 5277 c-3 -4 -7 -43 -14 -129 l-8 -88 162 0 161 0 -4 -27 c-3
-16 -8 -64 -11 -108 -4 -44 -8 -96 -10 -115 -2 -19 -6 -69 -10 -110 -12 -152
-17 -206 -31 -345 -1 -16 -5 -68 -9 -115 -4 -47 -8 -98 -10 -115 -11 -115 -21
-228 -30 -345 -3 -41 -8 -95 -10 -120 -6 -52 -11 -115 -20 -220 -4 -41 -8 -86
-10 -100 -2 -14 -6 -65 -10 -115 -4 -49 -8 -108 -10 -130 -2 -22 -6 -71 -10
-110 -3 -38 -8 -86 -10 -105 -2 -19 -7 -71 -10 -115 -3 -44 -8 -97 -11 -117
l-4 -38 270 0 270 0 0 28 c1 42 11 166 15 178 2 8 -32 12 -118 12 -67 0 -128
1 -135 1 -8 1 -11 11 -8 29 3 15 7 56 11 92 3 36 7 85 10 110 2 25 6 81 10
125 3 44 7 96 10 115 2 19 7 71 10 115 3 44 8 98 10 120 5 40 9 84 20 220 3
39 8 93 10 120 6 56 12 130 20 220 6 70 16 187 20 230 2 17 6 71 10 120 4 50
8 103 10 120 2 16 7 61 10 100 3 38 7 90 10 115 2 25 7 79 10 120 4 41 8 98
11 125 11 123 15 163 18 207 l4 47 -294 0 c-162 0 -295 -1 -295 -2z"/>
<path d="M1295 5243 c-179 -32 -404 -131 -545 -239 -46 -36 -158 -132 -175
-150 -160 -173 -268 -366 -354 -636 -27 -84 -37 -124 -56 -208 -2 -8 -8 -35
-14 -60 -11 -50 -18 -86 -26 -145 -3 -22 -8 -51 -10 -65 -33 -190 -24 -468 21
-634 22 -81 85 -217 125 -269 47 -61 121 -128 184 -166 58 -35 193 -85 260
-96 22 -4 51 -9 65 -12 60 -12 339 -11 417 2 104 17 146 31 211 73 57 37 249
222 297 287 17 22 35 45 41 52 6 6 25 34 43 62 37 58 48 63 46 24 -3 -48 21
-167 43 -208 47 -93 152 -182 263 -223 50 -18 76 -20 229 -19 145 2 173 4 175
17 5 31 56 296 62 318 5 22 4 22 -112 22 -67 0 -126 5 -138 11 -60 31 -136
146 -154 234 -5 22 -8 85 -7 140 2 55 3 177 4 270 l2 170 95 180 c53 99 113
212 133 250 65 121 201 376 248 465 41 77 120 226 231 433 22 42 40 77 39 78
-19 7 -372 2 -378 -6 -8 -10 -160 -292 -280 -520 -72 -137 -80 -149 -81 -114
-9 305 -94 491 -279 604 -108 66 -227 93 -413 93 -72 -1 -168 -7 -212 -15z
m241 -359 c147 -44 234 -150 270 -329 14 -71 17 -144 16 -427 l-1 -316 -34
-64 c-19 -34 -72 -133 -117 -218 -82 -154 -156 -285 -172 -305 -4 -5 -29 -37
-55 -70 -93 -118 -184 -191 -286 -229 -102 -38 -270 -21 -370 37 -59 35 -136
120 -170 190 -51 106 -62 166 -62 357 0 188 3 221 40 406 48 241 139 465 266
655 116 173 238 269 389 308 85 21 224 24 286 5z"/>
<path d="M4319 4358 c0 -24 -2 -52 -4 -63 -2 -11 -5 -41 -8 -67 l-4 -48 139 0
139 0 -5 -57 c-3 -32 -8 -92 -11 -133 -3 -41 -8 -91 -10 -110 -4 -32 -9 -90
-20 -210 -2 -25 -7 -74 -10 -110 -4 -36 -8 -87 -10 -115 -4 -48 -7 -81 -21
-225 -3 -36 -8 -83 -9 -105 -3 -36 -6 -74 -20 -220 -2 -22 -7 -71 -10 -110 -3
-38 -8 -94 -11 -122 l-6 -53 266 0 c246 0 266 1 267 18 0 9 2 26 4 36 2 11 6
52 10 92 l6 72 -131 -1 -132 -2 6 85 c4 47 8 96 10 110 3 14 7 61 11 105 3 44
8 96 10 115 2 19 6 69 10 110 3 41 8 93 10 115 6 60 14 142 20 220 3 39 8 88
10 110 2 22 7 72 10 110 3 39 8 88 10 110 2 22 7 69 10 105 11 133 16 176 21
228 l6 52 -276 0 -276 0 -1 -42z"/>
</g>
</svg>
