<?xml version="1.0" encoding="UTF-8" standalone="no"?>
<!-- Generator: Adobe Illustrator 16.0.3, SVG Export Plug-In . SVG Version: 6.00 Build 0)  -->

<svg
   xmlns:dc="http://purl.org/dc/elements/1.1/"
   xmlns:cc="http://creativecommons.org/ns#"
   xmlns:rdf="http://www.w3.org/1999/02/22-rdf-syntax-ns#"
   xmlns:svg="http://www.w3.org/2000/svg"
   xmlns="http://www.w3.org/2000/svg"
   xmlns:sodipodi="http://sodipodi.sourceforge.net/DTD/sodipodi-0.dtd"
   xmlns:inkscape="http://www.inkscape.org/namespaces/inkscape"
   version="1.1"
   id="Layer_1"
   x="0px"
   y="0px"
   width="160px"
   height="120px"
   viewBox="0 0 160 120"
   enable-background="new 0 0 160 120"
   xml:space="preserve"
   sodipodi:docname="alphafill-logo.svg"
   inkscape:version="0.92.5 (2060ec1f9f, 2020-04-08)"><metadata
   id="metadata4628"><rdf:RDF><cc:Work
       rdf:about=""><dc:format>image/svg+xml</dc:format><dc:type
         rdf:resource="http://purl.org/dc/dcmitype/StillImage" /><dc:title></dc:title></cc:Work></rdf:RDF></metadata><defs
   id="defs4626" /><sodipodi:namedview
   pagecolor="#ffffff"
   bordercolor="#666666"
   borderopacity="1"
   objecttolerance="10"
   gridtolerance="10"
   guidetolerance="10"
   inkscape:pageopacity="0"
   inkscape:pageshadow="2"
   inkscape:window-width="1864"
   inkscape:window-height="1149"
   id="namedview4624"
   showgrid="false"
   inkscape:zoom="7.7"
   inkscape:cx="80"
   inkscape:cy="59.913962"
   inkscape:window-x="0"
   inkscape:window-y="27"
   inkscape:window-maximized="1"
   inkscape:current-layer="text4651" />

<g
   id="g4611">
	
	
	
<g
   aria-label="αfill"
   style="font-style:normal;font-weight:normal;font-size:59.52733231px;line-height:1.25;font-family:sans-serif;letter-spacing:0px;word-spacing:0px;fill:#000000;fill-opacity:1;stroke:none;stroke-width:1.48818338"
   id="text4651"><path
     d="m 51.229867,54.592738 0.03972,-9.176162 q 0.03972,-9.374781 -7.031085,-9.414504 -5.283245,-0.03972 -8.580308,4.369601 -4.131259,5.442139 -5.521587,12.711566 -1.708116,8.739202 0.43696,12.910185 2.224525,4.25043 7.031086,4.25043 5.322968,0 9.81174,-8.461136 z M 45.469939,29.805183 q 12.393777,-0.198618 12.234883,12.632119 0,0 6.196888,-11.639028 h 6.514678 L 57.585651,54.910527 57.46648,63.610005 q 0,1.946459 1.072538,3.575129 1.231433,1.906735 2.50259,1.906735 h 3.535404 l -1.191709,6.196888 h -4.409325 q -3.734022,0 -6.43523,-3.336786 -1.271157,-1.668393 -1.310881,-5.164074 -2.582037,4.25043 -7.031085,7.865282 -2.105353,1.668393 -7.785835,1.628669 -9.295333,-0.07945 -12.671843,-6.037994 -3.455957,-6.196888 -1.31088,-17.160615 2.303971,-11.797923 8.341966,-17.160615 6.792743,-5.99827 14.697749,-6.117441 z"
     style="font-style:italic;font-variant:normal;font-weight:normal;font-stretch:normal;font-size:81.35402679px;font-family:'PMN Caecilia LT';-inkscape-font-specification:'PMN Caecilia LT Italic';fill:#3366cc;fill-opacity:1;stroke-width:1.48818338"
     id="path4736"
     inkscape:connector-curvature="0" /><path
     d="m 64.18559,86.072273 q 2.00556,0.81385 4.359912,0.81385 3.051939,0 5.231895,-1.831163 1.278907,-1.075445 2.034625,-3.836722 0.755718,-2.877542 1.220776,-8.836089 l 1.918361,-24.066714 h -4.766837 l 0.290661,-3.749524 h 4.708705 l 0.348793,-3.458864 q 0.639453,-6.220141 3.487929,-9.039551 3.051939,-3.022872 9.504608,-3.022872 3.48793,0 5.348159,0.755718 l -0.290661,3.691392 q -2.209022,-0.697586 -4.476176,-0.697586 -4.011119,0 -6.103877,1.743965 -2.441551,2.063692 -2.935674,6.772397 l -0.348793,3.255401 h 8.022238 l -0.29066,3.749524 h -7.964106 l -1.918362,24.241111 q -0.494123,6.191075 -1.278907,9.213947 -1.075445,4.011119 -3.313533,6.132943 -3.226335,3.051939 -7.615313,3.051939 -2.935675,0 -5.464424,-0.901049 z"
     style="fill:#ff9933;fill-opacity:1;stroke-width:1.48818338"
     id="path4738"
     inkscape:connector-curvature="0" /><path
     d="m 102.05869,29.044624 q 1.36611,0 2.35436,1.017312 1.01731,0.988247 1.01731,2.354353 0,1.395172 -1.01731,2.412485 -0.98825,0.988246 -2.35436,0.988246 -1.39517,0 -2.412482,-0.988246 -0.988247,-1.017313 -0.988247,-2.412485 0,-1.395172 1.017313,-2.383419 1.017316,-0.988246 2.383416,-0.988246 z M 98.541697,48.315435 H 93.77486 l 0.348793,-3.749524 h 9.359277 l -2.44155,26.973322 h 4.50524 l -0.34879,3.749524 h -9.097684 z"
     style="fill:#ff9933;fill-opacity:1;stroke-width:1.48818338"
     id="path4740"
     inkscape:connector-curvature="0" /><path
     d="m 116.03947,33.259205 h -5.49348 l 0.34879,-3.749524 h 10.14406 l -3.69139,42.029552 h 4.50524 l -0.34879,3.749524 h -9.15582 z"
     style="fill:#ff9933;fill-opacity:1;stroke-width:1.48818338"
     id="path4742"
     inkscape:connector-curvature="0" /><path
     d="m 132.57808,33.259205 h -5.49349 l 0.34879,-3.749524 h 10.14407 l -3.6914,42.029552 h 4.50525 l -0.3488,3.749524 h -9.15581 z"
     style="fill:#ff9933;fill-opacity:1;stroke-width:1.48818338"
     id="path4744"
     inkscape:connector-curvature="0" /></g></g>
<g
   id="g4613">
</g>
<g
   id="g4615">
</g>
<g
   id="g4617">
</g>
<g
   id="g4619">
</g>
<g
   id="g4621">
</g>
</svg>